<svg width="20" height="20" viewBox="0 0 20 20" fill="none" xmlns="http://www.w3.org/2000/svg">
<path fill-rule="evenodd" clip-rule="evenodd" d="M2.30159 2.98659C2.30354 2.98659 2.25476 3.03732 2.1933 3.09781C1.95721 3.32708 1.46843 3.80414 1.46351 4.80218C1.45575 6.19825 2.37379 8.79041 6.79421 13.2099C11.1941 17.6078 13.7824 18.5366 15.1814 18.5366H15.2019C16.1999 18.5317 16.676 18.042 16.9063 17.8069C16.9765 17.7347 17.0331 17.682 17.0731 17.6488C18.0448 16.6713 18.5423 15.9435 18.5375 15.4771C18.5306 15.001 17.9384 14.4381 17.1199 13.6596C16.8594 13.4118 16.5765 13.1425 16.278 12.844C15.5043 12.0723 15.1209 12.204 14.278 12.5006C13.1122 12.9094 11.5122 13.4655 9.02637 10.9787C6.53665 8.4909 7.09372 6.89288 7.50152 5.72704C7.79615 4.88412 7.93078 4.49974 7.15615 3.72512C6.85274 3.42268 6.58055 3.13586 6.32983 2.87245C5.55618 2.0588 4.99814 1.47052 4.52497 1.46369H4.51717C4.04986 1.46369 3.32402 1.96319 2.29672 2.99049C2.29964 2.98757 2.30062 2.98659 2.30159 2.98659ZM15.1824 20C12.7512 20 9.58148 18.0644 5.76008 14.245C1.92404 10.4099 -0.0144704 7.23043 8.13183e-05 4.79437C0.00894391 3.18464 0.852834 2.36026 1.1699 2.051C1.18649 2.03051 1.24307 1.9749 1.26258 1.95539C2.66159 0.555409 3.60499 -0.0104365 4.54351 0.000145497C5.63325 0.014929 6.40885 0.830527 7.3903 1.86368C7.63322 2.11929 7.89663 2.39733 8.19029 2.69001C9.61466 4.11438 9.20881 5.27631 8.88296 6.20898C8.52784 7.22653 8.22053 8.10457 10.0605 9.94454C11.9024 11.7845 12.7805 11.4772 13.7941 11.1192C14.7277 10.7933 15.8868 10.3855 17.3131 11.8099C17.6019 12.0987 17.876 12.3591 18.1287 12.6001C19.1667 13.5864 19.9862 14.3659 20 15.4586C20.0116 16.3903 19.4457 17.3396 18.0487 18.7376L17.4302 18.3181L17.9531 18.8293C17.6438 19.1464 16.8204 19.9912 15.2097 20H15.1824Z" fill="#008BFF"/>
</svg>
