<svg width="14" height="15" viewBox="0 0 14 15" fill="none" xmlns="http://www.w3.org/2000/svg">
<path fill-rule="evenodd" clip-rule="evenodd" d="M3.42809 13.0126C3.89435 13.0126 4.27377 13.4578 4.27377 14.0059C4.27377 14.554 3.89435 15 3.42809 15C2.96182 15 2.58306 14.554 2.58306 14.0059C2.58306 13.4578 2.96182 13.0126 3.42809 13.0126ZM10.7945 13.0126C11.2615 13.0126 11.6409 13.4578 11.6409 14.0059C11.6409 14.554 11.2615 15 10.7945 15C10.3283 15 9.94951 14.554 9.94951 14.0059C9.94951 13.4578 10.3283 13.0126 10.7945 13.0126ZM0.63583 0.00728245L1.99415 0.283626C2.21291 0.328916 2.37944 0.542314 2.39838 0.803306L2.55184 2.95341L3.1225 2.9537C3.21562 2.95375 3.30775 2.9538 3.39891 2.95385L4.44658 2.95443C4.53009 2.95448 4.61266 2.95453 4.69432 2.95458L5.8511 2.95533C5.92378 2.95538 5.99558 2.95543 6.06652 2.95548L6.87715 2.95608C6.94137 2.95614 7.00478 2.95619 7.06737 2.95624L7.78036 2.95686C7.83665 2.95691 7.89218 2.95696 7.94695 2.95701L8.56861 2.95764C8.61751 2.95769 8.66569 2.95774 8.71316 2.9578L9.12175 2.95827C9.1651 2.95833 9.20779 2.95838 9.2498 2.95843L9.72297 2.95908C9.75987 2.95913 9.79615 2.95919 9.83182 2.95924L10.2313 2.9599C10.2623 2.95995 10.2927 2.96001 10.3226 2.96006L10.5765 2.96056C10.6031 2.96062 10.6292 2.96067 10.6547 2.96073L10.9376 2.9614C10.9592 2.96146 10.9803 2.96152 11.001 2.96157L11.1751 2.96208C11.1931 2.96214 11.2107 2.9622 11.2279 2.96226L11.4145 2.96295C11.4285 2.96301 11.4421 2.96306 11.4553 2.96312L11.5649 2.96365C11.576 2.96371 11.5868 2.96376 11.5973 2.96382L11.7082 2.96453C11.7162 2.96459 11.724 2.96465 11.7315 2.96471L11.7919 2.96525C11.7979 2.96531 11.8036 2.96537 11.8091 2.96543L11.8525 2.96598C11.8567 2.96604 11.8608 2.9661 11.8646 2.96616L11.8942 2.96671C11.897 2.96677 11.8996 2.96683 11.9021 2.9669L11.9208 2.96745C11.9225 2.96751 11.9241 2.96758 11.9256 2.96764L11.9391 2.96839C11.94 2.96845 11.9407 2.96852 11.9415 2.96858C11.9478 2.96928 11.9488 2.9694 11.9497 2.96953C12.3134 3.03171 12.6334 3.25509 12.8515 3.59898C13.0696 3.94211 13.1611 4.36507 13.1088 4.78879L12.4891 9.82285C12.3722 10.7808 11.6643 11.5032 10.8415 11.5032H3.70967C2.84963 11.5032 2.12149 10.7141 2.05161 9.70464L1.45343 1.34218L0.469306 1.14259C0.202214 1.08733 0.0239349 0.790256 0.0696475 0.476299C0.116666 0.162342 0.374616 -0.0418453 0.63583 0.00728245ZM2.99149 4.10511L2.63412 4.10485L3.0279 9.61022C3.05664 10.034 3.35116 10.3517 3.71098 10.3517H10.8402C11.1804 10.3517 11.471 10.0539 11.5193 9.65858L12.1397 4.62376C12.1541 4.50401 12.1286 4.38426 12.0666 4.28754C12.0052 4.19005 11.9151 4.12711 11.8132 4.11022C11.8085 4.11043 11.7972 4.11062 11.7797 4.1108L11.7087 4.11128C11.6938 4.11135 11.6775 4.11141 11.6597 4.11148L11.2897 4.11214C11.2585 4.11217 11.2261 4.11219 11.1924 4.11221L10.3226 4.11216C10.274 4.11214 10.2246 4.11212 10.1743 4.11209L9.18158 4.11138C9.1221 4.11133 9.06197 4.11128 9.00125 4.11123L8.43954 4.1107C8.37556 4.11063 8.3111 4.11057 8.2462 4.11051L7.65123 4.10989C7.58404 4.10982 7.51653 4.10975 7.44873 4.10967L7.03889 4.10923C6.97013 4.10916 6.90117 4.10908 6.83204 4.10901L6.20662 4.10832C6.13689 4.10824 6.06711 4.10817 5.99733 4.10809L5.57897 4.10763C5.50935 4.10756 5.4398 4.10748 5.37037 4.10741L4.95556 4.10696C4.88677 4.10689 4.81818 4.10682 4.74982 4.10675L4.14217 4.10613C4.07561 4.10607 4.0094 4.106 3.9436 4.10594L3.17568 4.10525C3.11371 4.1052 3.0523 4.10515 2.99149 4.10511ZM9.79134 5.79077C10.0617 5.79077 10.2811 6.04869 10.2811 6.36649C10.2811 6.68428 10.0617 6.9422 9.79134 6.9422H7.98112C7.71011 6.9422 7.49134 6.68428 7.49134 6.36649C7.49134 6.04869 7.71011 5.79077 7.98112 5.79077H9.79134Z" fill="#313131"/>
</svg>
