<svg width="28" height="28" viewBox="0 0 28 28" fill="none" xmlns="http://www.w3.org/2000/svg">
<path d="M26.2515 14.272C26.2515 13.2648 26.1681 12.5298 25.9876 11.7676H14.2515V16.3136H21.1403C21.0015 17.4434 20.2515 19.1448 18.5848 20.2881L18.5614 20.4403L22.2721 23.2574L22.5292 23.2826C24.8903 21.1456 26.2515 18.0014 26.2515 14.272Z" fill="#4285F4"/>
<path d="M14.2506 26.2502C17.6256 26.2502 20.4589 25.1612 22.5284 23.2829L18.5839 20.2884C17.5284 21.0098 16.1117 21.5134 14.2506 21.5134C10.9451 21.5134 8.13959 19.3765 7.1395 16.4229L6.99291 16.4351L3.13444 19.3615L3.08398 19.4989C5.13951 23.5006 9.36173 26.2502 14.2506 26.2502Z" fill="#34A853"/>
<path d="M7.14029 16.4227C6.87641 15.6605 6.72369 14.8438 6.72369 13.9999C6.72369 13.156 6.87641 12.3394 7.12641 11.5771L7.11942 11.4148L3.21259 8.44141L3.08476 8.50099C2.23758 10.1616 1.75146 12.0263 1.75146 13.9999C1.75146 15.9735 2.23758 17.8382 3.08476 19.4988L7.14029 16.4227Z" fill="#FBBC05"/>
<path d="M14.2507 6.48663C16.5979 6.48663 18.1812 7.48024 19.084 8.31057L22.6118 4.935C20.4452 2.96139 17.6257 1.75 14.2507 1.75C9.36176 1.75 5.13952 4.49942 3.08398 8.50106L7.12564 11.5772C8.13962 8.6236 10.9452 6.48663 14.2507 6.48663Z" fill="#EB4335"/>
</svg>
