<svg width="232" height="119" viewBox="0 0 232 119" fill="none" xmlns="http://www.w3.org/2000/svg">
<path d="M1 78.508C20.1581 79.2155 39.2429 79.7299 58.4074 79.7299C60.6939 79.7299 60.9077 79.6832 61.8025 82.2417C62.5034 84.2457 63.3368 86.1691 64.0864 88.1476C65.0116 90.5895 66.7981 86.9018 67.7593 85.7038C69.553 83.4681 71.5129 81.2816 73.1296 78.8814C73.4608 78.3896 73.9889 76.9075 74.642 76.777C76.3363 76.4382 78.6153 79.5513 79.5802 80.6124C81.4758 82.697 82.6926 84.8349 84.0556 87.333C86.3737 91.5819 87.6382 84.3672 88.2839 82.1738C92.5871 67.5576 95.662 52.8566 98.5309 37.8453C100.774 26.1079 104.148 13.7102 109.086 2.95273C109.773 1.45733 110.499 -0.216116 111.247 2.27389C113.157 8.63053 113.942 15.5716 114.765 22.164C116.487 35.9505 116.939 49.3483 117.142 63.2001C117.357 77.855 119.453 92.369 119.92 106.985C119.996 109.37 119.709 115.514 121.37 117.508C124.17 120.866 130.628 106.003 131.123 104.44C134.081 95.1124 136.074 85.2036 138.407 75.6569C139.231 72.2851 138.868 66.4795 141 63.6413C141.318 63.2174 147.377 75.0296 148.16 76.1999C150.517 79.7217 153.606 78.0181 156.833 76.6751C161.661 74.6665 163.325 79.662 167.636 79.662C169.249 79.662 170.787 78.8715 172.451 79.1529C174.466 79.494 175.919 80.3785 178.037 80.2051C182.002 79.8804 186.173 79.942 190.012 78.7117C194.735 77.1984 199.775 73.7451 204.765 73.6203C208.816 73.5191 213.64 73.6327 217.667 74.2652C222.222 74.981 226.585 74.2313 231 74.2313" stroke="#008BFF" stroke-width="2" stroke-linecap="round"/>
</svg>
