<svg width="40" height="40" viewBox="0 0 40 40" fill="none" xmlns="http://www.w3.org/2000/svg">
<circle cx="20.0002" cy="20" r="20" fill="#F3F3F3"/>
<path fill-rule="evenodd" clip-rule="evenodd" d="M28.6772 26.299C28.6772 29.6165 24.1277 30 20.7065 30L20.4617 29.9998C18.282 29.9945 12.7339 29.8569 12.7339 26.2789C12.7339 23.0291 17.1005 22.5948 20.4957 22.5784L20.9514 22.5781C23.1309 22.5834 28.6772 22.721 28.6772 26.299ZM20.7065 24.0877C16.4178 24.0877 14.2437 24.8245 14.2437 26.2789C14.2437 27.7464 16.4178 28.4902 20.7065 28.4902C24.9943 28.4902 27.1674 27.7534 27.1674 26.299C27.1674 24.8315 24.9943 24.0877 20.7065 24.0877ZM20.7065 10C23.6536 10 26.0502 12.3975 26.0502 15.3446C26.0502 18.2917 23.6536 20.6883 20.7065 20.6883H20.6743C17.7333 20.6792 15.3508 18.2807 15.3609 15.3416C15.3609 12.3975 17.7584 10 20.7065 10ZM20.7065 11.4373C18.5516 11.4373 16.7982 13.1897 16.7982 15.3446C16.7912 17.4926 18.5315 19.2439 20.6774 19.252L20.7065 19.9706V19.252C22.8605 19.252 24.6129 17.4986 24.6129 15.3446C24.6129 13.1897 22.8605 11.4373 20.7065 11.4373Z" fill="#313131"/>
</svg>
