<svg width="22" height="23" viewBox="0 0 22 23" fill="none" xmlns="http://www.w3.org/2000/svg">
<path d="M21.4197 20.5957L21.4196 20.5956L18.3478 17.5303C19.9273 15.7588 20.8886 13.4238 20.8886 10.8688C20.8886 5.34382 16.3948 0.85 10.8698 0.85C5.34485 0.85 0.85 5.3438 0.85 10.8688C0.85 16.3937 5.34483 20.8886 10.8698 20.8886C13.1846 20.8886 15.3186 20.0994 17.0167 18.7762L20.1334 21.8843L20.1337 21.8845C20.3118 22.0614 20.5448 22.15 20.7765 22.15C21.0086 22.15 21.2431 22.0618 21.4207 21.8821C21.7765 21.5263 21.7749 20.951 21.4197 20.5957ZM2.67015 10.8688C2.67015 6.34764 6.3486 2.67015 10.8698 2.67015C15.39 2.67015 19.0684 6.34763 19.0684 10.8688C19.0684 15.39 15.3899 19.0684 10.8698 19.0684C6.34863 19.0684 2.67015 15.39 2.67015 10.8688Z" fill="#313131" stroke="#313131" stroke-width="0.3"/>
</svg>
